<svg width="153" height="113" viewBox="0 0 153 113" fill="none" xmlns="http://www.w3.org/2000/svg">
<rect x="23.5386" y="48" width="106.993" height="65" rx="5" fill="#181A20"/>
<path d="M73.4784 2.29181C75.2649 0.936776 77.7351 0.936773 79.5216 2.2918L130.907 41.2663C134.724 44.1618 132.676 50.25 127.885 50.25H25.115C20.3236 50.25 18.2759 44.1618 22.0934 41.2663L73.4784 2.29181Z" fill="#181A20"/>
<path d="M77.0331 38C75.8953 38 74.9645 39.7316 74.9645 41.8669C74.9645 42.8904 75.1842 43.8717 75.5721 44.5943C74.9645 44.6197 74.4085 44.7345 73.8008 44.8879V46.8033C76.0117 46.5108 78.2097 46.5241 80.2654 46.8033V44.8879C79.6836 44.7248 79.0501 44.633 78.4941 44.5943C78.882 43.8717 79.1018 42.8904 79.1018 41.8669C79.1018 39.7316 78.1709 38 77.0331 38ZM55.0833 46.4939C54.2753 47.2492 54.9295 49.0823 56.5443 50.5928C57.3291 51.3179 58.2212 51.8737 59.0487 52.1275C58.635 52.5505 58.3247 52.9976 58.0144 53.5051L59.4754 54.8585C60.7553 53.2392 62.3068 51.7892 64.0393 50.5928L62.5913 49.2273C62.0483 49.4932 61.5569 49.8557 61.1174 50.1941C60.8458 49.4207 60.2511 48.5869 59.4754 47.8618C58.441 47.1114 56.3013 45.3967 55.0833 46.4939ZM94.5909 47.8594C93.8151 48.5869 93.2204 49.4207 92.9489 50.1941C92.4964 49.8074 92.018 49.5173 91.475 49.2273L90.0269 50.5928C91.7594 51.7892 93.3109 53.2392 94.5909 54.8585L96.0519 53.5051C95.7674 52.9976 95.3795 52.5384 95.0175 52.1275C95.8321 51.8617 96.7242 51.3179 97.4999 50.5928C99.1161 49.0823 99.7754 47.2467 98.9609 46.4927C97.6809 45.5417 95.3408 47.1718 94.5909 47.8594ZM76.1927 48.7681C71.4348 48.9615 67.1165 50.7378 63.8325 53.5534C63.4058 53.928 62.9791 54.3147 62.643 54.6652C59.6305 57.7345 57.7299 61.7706 57.5231 66.2296C57.5231 66.7734 57.4972 67.3293 57.536 67.8006C57.7299 72.2475 59.6305 76.2836 62.643 79.353C63.0438 79.7397 63.4705 80.1384 63.8325 80.4647C67.1165 83.2682 71.4348 85.0446 76.1927 85.2379H76.2186C76.7487 85.2621 77.3434 85.2379 77.8735 85.2379C82.6314 85.0446 86.9498 83.2682 90.2338 80.4526C90.6604 80.078 91.0871 79.6913 91.4232 79.3409C94.4357 76.2715 96.3363 72.2354 96.5432 67.7885V67.7643C96.569 67.2568 96.5432 66.713 96.5432 66.2176C96.3363 61.7706 94.4357 57.7345 91.4232 54.6652C91.0224 54.2664 90.6087 53.8676 90.2338 53.5534C86.9498 50.7378 82.6314 48.9615 77.8735 48.7681C77.2917 48.744 76.697 48.7681 76.1927 48.7681ZM77.0331 50.0611C77.602 50.0611 78.0674 50.4962 78.0674 51.0279C78.0674 51.5596 77.602 51.9946 77.0331 51.9946C76.4642 51.9946 75.9988 51.5596 75.9988 51.0279C75.9988 50.4962 76.4642 50.0611 77.0331 50.0611ZM77.9252 53.493C81.248 53.6864 84.2734 54.9189 86.6265 56.8645C87.0661 57.2391 87.4928 57.6258 87.8807 58.0366C89.9622 60.2359 91.281 63.0636 91.4879 66.1813C91.5396 66.7372 91.4879 67.293 91.4879 67.8368C91.281 70.9424 89.9622 73.7701 87.8807 75.9694C87.4798 76.3803 87.0661 76.779 86.6265 77.1416C84.2734 79.0871 81.248 80.3197 77.9123 80.513C77.3176 80.5251 76.7228 80.5614 76.141 80.513C72.8182 80.3197 69.7928 79.0871 67.4526 77.1416H67.4397C67.0001 76.779 66.5864 76.3803 66.1985 75.9694C64.1169 73.7822 62.7852 70.9545 62.5783 67.8368C62.5654 67.281 62.5266 66.7372 62.5783 66.1934C62.643 63.0757 64.2979 60.0909 66.1856 58.0366C66.5864 57.6258 67.0001 57.227 67.4397 56.8645C69.7928 54.9189 72.8182 53.6864 76.1539 53.493C76.7487 53.4447 77.3434 53.493 77.9252 53.493ZM65.6684 55.0156C66.0692 55.3902 66.0692 56.0065 65.6684 56.3811C65.2676 56.7557 64.6082 56.7557 64.2074 56.3811C63.8066 56.0065 63.8066 55.3902 64.2074 55.0156C64.6599 54.6652 65.2676 54.6652 65.6684 55.0156ZM89.8588 55.0156C90.2596 55.3902 90.2596 56.0065 89.8588 56.3811C89.458 56.7557 88.7986 56.7557 88.3978 56.3811C87.997 56.0065 87.997 55.3902 88.3978 55.0156C88.8503 54.6652 89.458 54.6652 89.8588 55.0156ZM74.9645 55.8011V56.8524C75.2877 57.2391 75.5333 57.517 75.9729 57.6741C75.8824 59.1725 75.7661 60.7072 75.6109 62.2298C76.5677 62.0002 77.5761 61.9881 78.4682 62.2419C78.3131 60.7072 78.1838 59.1725 78.0933 57.662C79.1147 57.4083 79.1018 56.6228 79.1018 55.8011C77.6796 55.5956 76.2832 55.6077 74.9645 55.8011ZM70.0126 57.7104C68.8878 58.4596 67.8922 59.39 67.0906 60.4414L67.8922 61.1906C68.4094 61.251 68.7973 61.2872 69.2239 61.106C70.297 62.2298 71.3702 63.3899 72.4174 64.5741C72.8958 63.7887 73.594 63.1361 74.4473 62.689C73.1673 61.7102 71.9261 60.7072 70.7237 59.7042C70.9564 59.3296 70.8918 58.8946 70.8142 58.4596L70.0126 57.7104ZM84.0536 57.7104L83.252 58.4596C83.1615 58.9429 83.1486 59.2934 83.3296 59.7042C82.1401 60.7072 80.886 61.7102 79.6189 62.689C80.4593 63.1361 81.1575 63.7887 81.6359 64.5862C82.6831 63.3899 83.7692 62.2298 84.8294 61.106C85.2431 61.3114 85.6956 61.2631 86.1611 61.1906L86.9627 60.4414C86.1611 59.39 85.1785 58.4596 84.0536 57.7104ZM98.6377 63.982C98.9609 66.0484 98.9351 68.1027 98.6377 70.024H100.693C100.887 69.4803 100.952 68.8881 100.991 68.3685C101.767 68.731 102.827 68.9365 103.926 68.9365C106.214 68.9365 108.063 68.0664 108.063 67.003C108.063 65.9396 106.214 65.0696 103.926 65.0696C102.827 65.0696 101.767 65.275 100.991 65.6375C100.978 65.0696 100.861 64.5499 100.693 63.982H98.6377ZM53.3767 63.9941C53.2021 64.5379 53.1039 65.1058 53.0664 65.6375C52.2881 65.275 51.2369 65.0817 50.1444 65.0817C47.8598 65.0817 46.0071 65.9517 46.0071 67.0151C46.0071 68.0785 47.8598 68.9486 50.1444 68.9486C51.2408 68.9486 52.2919 68.7431 53.0664 68.3806C53.0858 68.9486 53.2112 69.4682 53.3767 70.0361H55.4195C55.1118 67.9697 55.0963 65.9155 55.4195 63.9941H53.3767ZM77.0331 64.2237C75.3653 64.2237 74.0594 65.4563 74.0594 67.003C74.0594 68.5498 75.3653 69.7824 77.0331 69.7824C78.688 69.7824 80.0068 68.5498 80.0068 67.003C80.0068 65.4563 78.688 64.2237 77.0331 64.2237ZM87.8936 65.0696C87.4798 65.3717 87.1825 65.6013 87.0144 66.0121C85.4112 65.9275 83.7692 65.8188 82.1401 65.6738C82.3858 66.5801 82.3858 67.5106 82.1401 68.3444C83.7692 68.1993 85.3983 68.0785 87.0144 67.9939C87.1437 68.4169 87.5057 68.6827 87.8936 68.9365H89.0184C89.2382 67.6072 89.2253 66.3021 89.0184 65.0696H87.8936ZM65.0478 65.0817C64.828 66.3988 64.8539 67.716 65.0478 68.9486H66.1726C66.5734 68.6465 66.8967 68.4289 67.0389 68.006C68.655 68.0785 70.2841 68.1993 71.9261 68.3444C71.6675 67.438 71.6675 66.5076 71.9132 65.6738C70.2841 65.8188 68.6421 65.9275 67.0389 66.0121C66.9225 65.5892 66.5476 65.3233 66.1726 65.0817H65.0478ZM94.1254 66.0363C94.6943 66.0363 95.1598 66.4713 95.1598 67.003C95.1598 67.5347 94.6943 67.9697 94.1254 67.9697C93.5565 67.9697 93.0911 67.5347 93.0911 67.003C93.0911 66.4713 93.5565 66.0363 94.1254 66.0363ZM59.9408 66.0484C60.5097 66.0484 60.9751 66.4834 60.9751 67.0151C60.9751 67.5468 60.5097 67.9818 59.9408 67.9818C59.3719 67.9818 58.9065 67.5468 58.9065 67.0151C58.9065 66.4834 59.3719 66.0484 59.9408 66.0484ZM81.6488 69.4319C81.1704 70.2174 80.4723 70.8699 79.6189 71.317C80.8989 72.2959 82.1401 73.2988 83.3425 74.3018C83.1098 74.6764 83.1744 75.1114 83.252 75.5465L84.0536 76.2957C85.1785 75.5465 86.174 74.616 86.9756 73.5647L86.174 72.8155C85.6568 72.755 85.269 72.7188 84.8423 72.9001C83.7692 71.7762 82.6961 70.6162 81.6488 69.4319ZM72.4174 69.4319C71.3702 70.6162 70.297 71.7762 69.2239 72.9001C68.8231 72.6825 68.3577 72.743 67.9051 72.8155L67.0906 73.5647C67.8922 74.6281 68.8878 75.5586 70.0255 76.2957L70.8271 75.5465C70.8918 75.0631 70.9306 74.7006 70.7366 74.3018C71.939 73.2988 73.1802 72.2959 74.4473 71.317C73.6069 70.8699 72.8958 70.2174 72.4174 69.4319ZM75.598 71.7642C75.7531 73.2988 75.8824 74.8335 75.9729 76.344C75.5204 76.4407 75.223 76.8032 74.9645 77.1537V78.205C76.3867 78.4104 77.783 78.3983 79.1018 78.205V77.1537C78.7785 76.767 78.5329 76.489 78.0933 76.3319C78.1838 74.8335 78.3002 73.2988 78.4553 71.7762C77.4598 71.9333 76.4125 71.9817 75.598 71.7642ZM65.6813 77.6249C66.0821 77.9995 66.0821 78.6158 65.6813 78.9904C65.2805 79.365 64.6211 79.365 64.2203 78.9904C63.8195 78.6158 63.8195 77.9995 64.2203 77.6249C64.6729 77.2624 65.2805 77.2624 65.6813 77.6249ZM89.8588 77.6249C90.2596 77.9995 90.2596 78.6158 89.8588 78.9904C89.458 79.365 88.7986 79.365 88.3978 78.9904C87.997 78.6158 87.997 77.9995 88.3978 77.6249C88.8503 77.2624 89.4709 77.2624 89.8588 77.6249ZM94.5909 79.1475C93.3109 80.7668 91.7594 82.2169 90.0269 83.4132L91.475 84.7787C92.018 84.5129 92.5093 84.1503 92.9489 83.812C93.2204 84.5854 93.8151 85.4192 94.5909 86.1442C96.207 87.6547 98.1593 88.2589 98.9738 87.5097C99.7754 86.7484 99.129 84.9237 97.5129 83.4132C96.7371 82.6882 95.845 82.1323 95.0175 81.8785C95.4313 81.4556 95.7416 81.0085 96.0519 80.5009L94.5909 79.1475ZM59.4754 79.1475L58.0273 80.5009C58.3247 80.9964 58.6867 81.4918 59.0616 81.8785C58.2342 82.1323 57.342 82.6882 56.5572 83.4132C54.945 84.9237 54.2921 86.7484 55.0963 87.5097C55.903 88.271 57.8721 87.6547 59.4883 86.1442C60.264 85.4192 60.8588 84.5854 61.1303 83.812C61.5828 84.1987 62.0612 84.4887 62.6042 84.7787L64.0523 83.4253C62.3068 82.2169 60.7683 80.7789 59.4754 79.1475ZM77.0331 82.0115C77.602 82.0115 78.0674 82.4465 78.0674 82.9782C78.0674 83.5099 77.602 83.9449 77.0331 83.9449C76.4642 83.9449 75.9988 83.5099 75.9988 82.9782C75.9988 82.4465 76.4642 82.0115 77.0331 82.0115ZM73.8008 87.2076V89.1169C74.3826 89.2861 75.0162 89.3707 75.5721 89.4069C75.1842 90.132 74.9645 91.1108 74.9645 92.1379C74.9645 94.2768 75.8953 96.0048 77.0331 96.0048C78.1709 96.0048 79.1018 94.2768 79.1018 92.1379C79.1018 91.1108 78.882 90.132 78.4941 89.4069C79.1018 89.3828 79.6577 89.274 80.2654 89.1169V87.1955C78.0545 87.4976 75.8566 87.4856 73.8008 87.2076Z" fill="white"/>
</svg>
