<svg width="365" height="113" viewBox="0 0 365 113" fill="none" xmlns="http://www.w3.org/2000/svg">
<rect x="23.4795" y="48" width="106.725" height="65" rx="5" fill="#181A20"/>
<path d="M73.2821 2.30121C75.0705 0.941316 77.5464 0.941313 79.3349 2.30121L130.584 41.2699C134.395 44.1682 132.346 50.25 127.557 50.25H25.0597C20.2714 50.25 18.2217 44.1682 22.0333 41.2699L73.2821 2.30121Z" fill="#181A20"/>
<path d="M76.8402 38C75.7053 38 74.7767 39.7316 74.7767 41.8669C74.7767 42.8904 74.996 43.8717 75.3829 44.5943C74.7767 44.6197 74.2222 44.7345 73.616 44.8879V46.8033C75.8214 46.5108 78.0138 46.5241 80.0644 46.8033V44.8879C79.484 44.7248 78.8521 44.633 78.2975 44.5943C78.6844 43.8717 78.9037 42.8904 78.9037 41.8669C78.9037 39.7316 77.9751 38 76.8402 38ZM54.9454 46.4939C54.1393 47.2492 54.7919 49.0823 56.4027 50.5928C57.1855 51.3179 58.0754 51.8737 58.9008 52.1275C58.4881 52.5505 58.1786 52.9976 57.8691 53.5051L59.3264 54.8585C60.6032 53.2392 62.1508 51.7892 63.879 50.5928L62.4345 49.2273C61.8929 49.4932 61.4028 49.8557 60.9643 50.1941C60.6935 49.4207 60.1002 48.5869 59.3264 47.8618C58.2947 47.1114 56.1602 45.3967 54.9454 46.4939ZM94.354 47.8594C93.5802 48.5869 92.9869 49.4207 92.7161 50.1941C92.2647 49.8074 91.7875 49.5173 91.2459 49.2273L89.8014 50.5928C91.5296 51.7892 93.0772 53.2392 94.354 54.8585L95.8113 53.5051C95.5276 52.9976 95.1407 52.5384 94.7796 52.1275C95.5921 51.8617 96.482 51.3179 97.2558 50.5928C98.8679 49.0823 99.5256 47.2467 98.7131 46.4927C97.4363 45.5417 95.102 47.1718 94.354 47.8594ZM76.0019 48.7681C71.2559 48.9615 66.9484 50.7378 63.6726 53.5534C63.247 53.928 62.8214 54.3147 62.4861 54.6652C59.4812 57.7345 57.5853 61.7706 57.379 66.2296C57.379 66.7734 57.3532 67.3293 57.3919 67.8006C57.5853 72.2475 59.4812 76.2836 62.4861 79.353C62.8859 79.7397 63.3115 80.1384 63.6726 80.4647C66.9484 83.2682 71.2559 85.0446 76.0019 85.2379H76.0277C76.5565 85.2621 77.1497 85.2379 77.6785 85.2379C82.4245 85.0446 86.732 83.2682 90.0078 80.4526C90.4334 80.078 90.859 79.6913 91.1943 79.3409C94.1992 76.2715 96.0951 72.2354 96.3014 67.7885V67.7643C96.3272 67.2568 96.3014 66.713 96.3014 66.2176C96.0951 61.7706 94.1992 57.7345 91.1943 54.6652C90.7945 54.2664 90.3818 53.8676 90.0078 53.5534C86.732 50.7378 82.4245 48.9615 77.6785 48.7681C77.0981 48.744 76.5049 48.7681 76.0019 48.7681ZM76.8402 50.0611C77.4077 50.0611 77.8719 50.4962 77.8719 51.0279C77.8719 51.5596 77.4077 51.9946 76.8402 51.9946C76.2727 51.9946 75.8085 51.5596 75.8085 51.0279C75.8085 50.4962 76.2727 50.0611 76.8402 50.0611ZM77.7301 53.493C81.0445 53.6864 84.0624 54.9189 86.4096 56.8645C86.8481 57.2391 87.2737 57.6258 87.6606 58.0366C89.737 60.2359 91.0524 63.0636 91.2588 66.1813C91.3104 66.7372 91.2588 67.293 91.2588 67.8368C91.0524 70.9424 89.737 73.7701 87.6606 75.9694C87.2608 76.3803 86.8481 76.779 86.4096 77.1416C84.0624 79.0871 81.0445 80.3197 77.7172 80.513C77.1239 80.5251 76.5307 80.5614 75.9503 80.513C72.6359 80.3197 69.618 79.0871 67.2837 77.1416H67.2708C66.8323 76.779 66.4196 76.3803 66.0327 75.9694C63.9563 73.7822 62.628 70.9545 62.4216 67.8368C62.4087 67.281 62.37 66.7372 62.4216 66.1934C62.4861 63.0757 64.1369 60.0909 66.0198 58.0366C66.4196 57.6258 66.8323 57.227 67.2708 56.8645C69.618 54.9189 72.6359 53.6864 75.9632 53.493C76.5565 53.4447 77.1497 53.493 77.7301 53.493ZM65.504 55.0156C65.9037 55.3902 65.9037 56.0065 65.504 56.3811C65.1042 56.7557 64.4464 56.7557 64.0466 56.3811C63.6468 56.0065 63.6468 55.3902 64.0466 55.0156C64.498 54.6652 65.1042 54.6652 65.504 55.0156ZM89.6338 55.0156C90.0336 55.3902 90.0336 56.0065 89.6338 56.3811C89.234 56.7557 88.5763 56.7557 88.1765 56.3811C87.7767 56.0065 87.7767 55.3902 88.1765 55.0156C88.6278 54.6652 89.234 54.6652 89.6338 55.0156ZM74.7767 55.8011V56.8524C75.0991 57.2391 75.3442 57.517 75.7827 57.6741C75.6924 59.1725 75.5763 60.7072 75.4216 62.2298C76.3759 62.0002 77.3819 61.9881 78.2717 62.2419C78.117 60.7072 77.988 59.1725 77.8977 57.662C78.9166 57.4083 78.9037 56.6228 78.9037 55.8011C77.485 55.5956 76.0922 55.6077 74.7767 55.8011ZM69.8373 57.7104C68.7152 58.4596 67.7222 59.39 66.9226 60.4414L67.7222 61.1906C68.2381 61.251 68.625 61.2872 69.0506 61.106C70.121 62.2298 71.1914 63.3899 72.2361 64.5741C72.7132 63.7887 73.4097 63.1361 74.2608 62.689C72.9841 61.7102 71.746 60.7072 70.5466 59.7042C70.7787 59.3296 70.7142 58.8946 70.6369 58.4596L69.8373 57.7104ZM83.8431 57.7104L83.0435 58.4596C82.9533 58.9429 82.9404 59.2934 83.1209 59.7042C81.9344 60.7072 80.6834 61.7102 79.4196 62.689C80.2578 63.1361 80.9543 63.7887 81.4315 64.5862C82.4761 63.3899 83.5594 62.2298 84.6169 61.106C85.0296 61.3114 85.481 61.2631 85.9453 61.1906L86.7449 60.4414C85.9453 59.39 84.9652 58.4596 83.8431 57.7104ZM98.3907 63.982C98.7131 66.0484 98.6873 68.1027 98.3907 70.024H100.441C100.635 69.4803 100.699 68.8881 100.738 68.3685C101.512 68.731 102.569 68.9365 103.665 68.9365C105.948 68.9365 107.792 68.0664 107.792 67.003C107.792 65.9396 105.948 65.0696 103.665 65.0696C102.569 65.0696 101.512 65.275 100.738 65.6375C100.725 65.0696 100.609 64.5499 100.441 63.982H98.3907ZM53.243 63.9941C53.0689 64.5379 52.9709 65.1058 52.9335 65.6375C52.1571 65.275 51.1086 65.0817 50.0188 65.0817C47.74 65.0817 45.8918 65.9517 45.8918 67.0151C45.8918 68.0785 47.74 68.9486 50.0188 68.9486C51.1125 68.9486 52.161 68.7431 52.9335 68.3806C52.9528 68.9486 53.0779 69.4682 53.243 70.0361H55.2807C54.9737 67.9697 54.9583 65.9155 55.2807 63.9941H53.243ZM76.8402 64.2237C75.1765 64.2237 73.8739 65.4563 73.8739 67.003C73.8739 68.5498 75.1765 69.7824 76.8402 69.7824C78.491 69.7824 79.8065 68.5498 79.8065 67.003C79.8065 65.4563 78.491 64.2237 76.8402 64.2237ZM87.6735 65.0696C87.2608 65.3717 86.9642 65.6013 86.7965 66.0121C85.1973 65.9275 83.5594 65.8188 81.9344 65.6738C82.1795 66.5801 82.1795 67.5106 81.9344 68.3444C83.5594 68.1993 85.1844 68.0785 86.7965 67.9939C86.9255 68.4169 87.2866 68.6827 87.6735 68.9365H88.7955C89.0147 67.6072 89.0018 66.3021 88.7955 65.0696H87.6735ZM64.8849 65.0817C64.6657 66.3988 64.6915 67.716 64.8849 68.9486H66.0069C66.4067 68.6465 66.7291 68.4289 66.871 68.006C68.4831 68.0785 70.1081 68.1993 71.746 68.3444C71.488 67.438 71.488 66.5076 71.7331 65.6738C70.1081 65.8188 68.4702 65.9275 66.871 66.0121C66.7549 65.5892 66.3809 65.3233 66.0069 65.0817H64.8849ZM93.8897 66.0363C94.4572 66.0363 94.9215 66.4713 94.9215 67.003C94.9215 67.5347 94.4572 67.9697 93.8897 67.9697C93.3223 67.9697 92.858 67.5347 92.858 67.003C92.858 66.4713 93.3223 66.0363 93.8897 66.0363ZM59.7907 66.0484C60.3581 66.0484 60.8224 66.4834 60.8224 67.0151C60.8224 67.5468 60.3581 67.9818 59.7907 67.9818C59.2232 67.9818 58.7589 67.5468 58.7589 67.0151C58.7589 66.4834 59.2232 66.0484 59.7907 66.0484ZM81.4443 69.4319C80.9672 70.2174 80.2707 70.8699 79.4196 71.317C80.6963 72.2959 81.9344 73.2988 83.1338 74.3018C82.9017 74.6764 82.9662 75.1114 83.0435 75.5465L83.8431 76.2957C84.9652 75.5465 85.9582 74.616 86.7578 73.5647L85.9582 72.8155C85.4423 72.755 85.0554 72.7188 84.6298 72.9001C83.5594 71.7762 82.489 70.6162 81.4443 69.4319ZM72.2361 69.4319C71.1914 70.6162 70.121 71.7762 69.0506 72.9001C68.6508 72.6825 68.1865 72.743 67.7351 72.8155L66.9226 73.5647C67.7222 74.6281 68.7152 75.5586 69.8502 76.2957L70.6498 75.5465C70.7142 75.0631 70.7529 74.7006 70.5595 74.3018C71.7589 73.2988 72.997 72.2959 74.2608 71.317C73.4226 70.8699 72.7132 70.2174 72.2361 69.4319ZM75.4087 71.7642C75.5634 73.2988 75.6924 74.8335 75.7827 76.344C75.3313 76.4407 75.0347 76.8032 74.7767 77.1537V78.205C76.1954 78.4104 77.5882 78.3983 78.9037 78.205V77.1537C78.5813 76.767 78.3362 76.489 77.8977 76.3319C77.988 74.8335 78.1041 73.2988 78.2588 71.7762C77.2658 71.9333 76.2212 71.9817 75.4087 71.7642ZM65.5168 77.6249C65.9166 77.9995 65.9166 78.6158 65.5168 78.9904C65.117 79.365 64.4593 79.365 64.0595 78.9904C63.6597 78.6158 63.6597 77.9995 64.0595 77.6249C64.5109 77.2624 65.117 77.2624 65.5168 77.6249ZM89.6338 77.6249C90.0336 77.9995 90.0336 78.6158 89.6338 78.9904C89.234 79.365 88.5763 79.365 88.1765 78.9904C87.7767 78.6158 87.7767 77.9995 88.1765 77.6249C88.6278 77.2624 89.2469 77.2624 89.6338 77.6249ZM94.354 79.1475C93.0772 80.7668 91.5296 82.2169 89.8014 83.4132L91.2459 84.7787C91.7875 84.5129 92.2776 84.1503 92.7161 83.812C92.9869 84.5854 93.5802 85.4192 94.354 86.1442C95.9661 87.6547 97.9135 88.2589 98.726 87.5097C99.5256 86.7484 98.8808 84.9237 97.2687 83.4132C96.4949 82.6882 95.605 82.1323 94.7796 81.8785C95.1923 81.4556 95.5018 81.0085 95.8113 80.5009L94.354 79.1475ZM59.3264 79.1475L57.882 80.5009C58.1786 80.9964 58.5397 81.4918 58.9137 81.8785C58.0883 82.1323 57.1984 82.6882 56.4156 83.4132C54.8074 84.9237 54.1561 86.7484 54.9583 87.5097C55.763 88.271 57.7272 87.6547 59.3393 86.1442C60.1131 85.4192 60.7064 84.5854 60.9772 83.812C61.4286 84.1987 61.9058 84.4887 62.4474 84.7787L63.8919 83.4253C62.1508 82.2169 60.6161 80.7789 59.3264 79.1475ZM76.8402 82.0115C77.4077 82.0115 77.8719 82.4465 77.8719 82.9782C77.8719 83.5099 77.4077 83.9449 76.8402 83.9449C76.2727 83.9449 75.8085 83.5099 75.8085 82.9782C75.8085 82.4465 76.2727 82.0115 76.8402 82.0115ZM73.616 87.2076V89.1169C74.1964 89.2861 74.8283 89.3707 75.3829 89.4069C74.996 90.132 74.7767 91.1108 74.7767 92.1379C74.7767 94.2768 75.7053 96.0048 76.8402 96.0048C77.9751 96.0048 78.9037 94.2768 78.9037 92.1379C78.9037 91.1108 78.6844 90.132 78.2975 89.4069C78.9037 89.3828 79.4582 89.274 80.0644 89.1169V87.1955C77.859 87.4976 75.6666 87.4856 73.616 87.2076Z" fill="white"/>
<path d="M143.517 97.2C142.084 97.2 140.767 96.7 139.567 95.7C138.367 94.7 137.767 93.3333 137.767 91.6C137.767 91.4 137.817 91.3 137.917 91.3C138.05 91.3 138.167 91.4833 138.267 91.85C139 94.3833 140.634 95.65 143.167 95.65C146.734 95.65 150.234 91.45 153.667 83.05C153.767 82.75 153.85 82.5 153.917 82.3C154.017 82.1333 154.134 81.8833 154.267 81.55C154.4 81.1833 154.584 80.6167 154.817 79.85C155.084 79.0833 155.467 78 155.967 76.6L158.267 69.95C156.667 69.4833 155.867 68.55 155.867 67.15C155.867 66.85 155.95 66.7 156.117 66.7L158.667 67.15H158.967C159.134 67.15 159.25 67.1 159.317 67C159.684 66.5 159.934 65.9 160.067 65.2C160.7 63.2333 161.284 61.5667 161.817 60.2C162.384 58.8333 162.917 57.7667 163.417 57C164.484 55.4333 165.767 54.65 167.267 54.65C168.034 54.65 168.7 54.8667 169.267 55.3C169.834 55.7333 170.117 56.2833 170.117 56.95C170.117 58.55 169.6 59.35 168.567 59.35C168.234 59.35 168.067 59.25 168.067 59.05C168.334 58.45 168.467 57.7333 168.467 56.9C168.467 56 168.217 55.55 167.717 55.55C166.717 55.55 165.484 56.9833 164.017 59.85C163.917 60.0833 163.767 60.4 163.567 60.8C163.4 61.2 163.084 62.0667 162.617 63.4C161.95 65.3 161.617 66.3333 161.617 66.5C161.617 66.8333 161.834 67 162.267 67L168.617 66.85C168.717 66.85 168.767 66.9167 168.767 67.05C166.5 67.8167 164.667 68.4333 163.267 68.9C161.9 69.3333 160.95 69.6167 160.417 69.75C160.417 69.8833 160.3 70.3 160.067 71C159.834 71.6667 159.434 72.9333 158.867 74.8C157.634 78.8333 156.434 82.25 155.267 85.05C154.1 87.8833 152.9 90.1833 151.667 91.95C149.234 95.45 146.517 97.2 143.517 97.2ZM167.652 82.55C164.819 82.55 163.402 81.2333 163.402 78.6C163.402 76.5667 164.402 74.1 166.402 71.2C168.469 68.3 170.435 66.85 172.302 66.85C173.102 66.85 173.802 67.1167 174.402 67.65C175.035 68.15 175.352 68.7667 175.352 69.5C175.352 70.7333 174.569 71.9833 173.002 73.25C171.469 74.4833 169.952 75.1 168.452 75.1C168.152 75.1 168.002 75.0333 168.002 74.9L168.152 74.65C171.985 73.45 173.902 71.4833 173.902 68.75C173.902 68.35 173.769 68.15 173.502 68.15C173.135 68.15 172.469 68.5333 171.502 69.3C170.669 69.9667 169.885 70.7333 169.152 71.6C168.452 72.4667 167.819 73.3667 167.252 74.3C166.052 76.3333 165.452 78.0333 165.452 79.4C165.452 80.7333 165.969 81.4 167.002 81.4C168.202 81.4 169.519 80.7833 170.952 79.55C171.419 79.1167 171.919 78.6333 172.452 78.1C172.985 77.5333 173.569 76.9167 174.202 76.25C175.435 74.9167 176.085 74.25 176.152 74.25C176.352 74.25 176.452 74.3333 176.452 74.5C176.452 74.6333 176.419 74.7667 176.352 74.9C172.852 80 169.952 82.55 167.652 82.55ZM177.822 82.1C177.522 82.1 177.189 82.0167 176.822 81.85C176.455 81.6833 176.272 81.4833 176.272 81.25C176.272 80.6833 176.822 78.6833 177.922 75.25C179.022 71.7833 179.572 69.1833 179.572 67.45C179.572 66.9167 179.339 66.6167 178.872 66.55C178.405 66.4833 178.172 66.3833 178.172 66.25C178.172 65.95 178.422 65.8 178.922 65.8C181.155 65.8 182.272 66.7167 182.272 68.55C182.272 69.0833 181.722 71.05 180.622 74.45C182.422 71.5167 184.422 69.5 186.622 68.4C187.189 67.2 187.972 66.6 188.972 66.6C189.939 66.6 190.472 66.6833 190.572 66.85C190.539 66.8167 190.472 66.8667 190.372 67C190.272 67.1333 190.155 67.2833 190.022 67.45C189.489 68.2167 189.022 68.9667 188.622 69.7C188.222 70.4 188.005 70.95 187.972 71.35C187.972 72.25 188.289 72.8 188.922 73C188.989 73.0333 189.055 73.05 189.122 73.05C189.222 73.05 189.272 73.0833 189.272 73.15C189.272 73.4167 188.939 73.55 188.272 73.55C187.639 73.55 187.089 73.3 186.622 72.8C186.355 72.5 186.172 72.1833 186.072 71.85C185.972 71.4833 185.922 71.1333 185.922 70.8C185.922 70.2667 186.005 69.7833 186.172 69.35C185.339 69.9833 184.589 70.65 183.922 71.35C183.255 72.0167 182.639 72.6833 182.072 73.35C181.005 74.7167 180.255 75.9333 179.822 77C179.422 78.0333 179.139 78.9167 178.972 79.65C178.772 80.45 178.605 81.0667 178.472 81.5C178.339 81.9 178.122 82.1 177.822 82.1ZM190.81 82.1C190.51 82.1 190.177 82.0167 189.81 81.85C189.444 81.6833 189.26 81.4833 189.26 81.25C189.26 80.6833 189.81 78.6833 190.91 75.25C192.01 71.7833 192.56 69.1833 192.56 67.45C192.56 66.9167 192.327 66.6167 191.86 66.55C191.394 66.4833 191.16 66.3833 191.16 66.25C191.16 65.95 191.41 65.8 191.91 65.8C194.144 65.8 195.26 66.7167 195.26 68.55C195.26 69.0833 194.71 71.05 193.61 74.45C195.41 71.5167 197.41 69.5 199.61 68.4C200.177 67.2 200.96 66.6 201.96 66.6C202.927 66.6 203.46 66.6833 203.56 66.85C203.527 66.8167 203.46 66.8667 203.36 67C203.26 67.1333 203.144 67.2833 203.01 67.45C202.477 68.2167 202.01 68.9667 201.61 69.7C201.21 70.4 200.994 70.95 200.96 71.35C200.96 72.25 201.277 72.8 201.91 73C201.977 73.0333 202.044 73.05 202.11 73.05C202.21 73.05 202.26 73.0833 202.26 73.15C202.26 73.4167 201.927 73.55 201.26 73.55C200.627 73.55 200.077 73.3 199.61 72.8C199.344 72.5 199.16 72.1833 199.06 71.85C198.96 71.4833 198.91 71.1333 198.91 70.8C198.91 70.2667 198.994 69.7833 199.16 69.35C198.327 69.9833 197.577 70.65 196.91 71.35C196.244 72.0167 195.627 72.6833 195.06 73.35C193.994 74.7167 193.244 75.9333 192.81 77C192.41 78.0333 192.127 78.9167 191.96 79.65C191.76 80.45 191.594 81.0667 191.46 81.5C191.327 81.9 191.11 82.1 190.81 82.1ZM208.749 64.55C208.015 64.55 207.415 64.35 206.949 63.95C207.582 63.5167 208.249 62.95 208.949 62.25C209.682 61.55 210.432 60.7167 211.199 59.75C211.265 59.75 211.299 59.8333 211.299 60L211.049 61.45C210.882 62.4833 210.582 63.2667 210.149 63.8C209.715 64.3 209.249 64.55 208.749 64.55ZM203.949 82.75C202.682 82.75 202.049 81.8333 202.049 80C202.049 77.2333 203.049 73.5833 205.049 69.05C205.049 68.9167 205.132 68.6667 205.299 68.3C205.499 67.9333 205.649 67.7 205.749 67.6C205.982 67.3667 206.299 67.25 206.699 67.25C207.865 67.25 208.499 67.4833 208.599 67.95C208.065 68.8167 207.549 69.8167 207.049 70.95C206.582 72.0833 206.115 73.3333 205.649 74.7C205.149 76.1667 204.782 77.3833 204.549 78.35C204.349 79.2833 204.249 80.0333 204.249 80.6C204.249 81.4333 204.465 81.85 204.899 81.85C205.199 81.85 205.582 81.6667 206.049 81.3C206.415 81 206.665 80.7833 206.799 80.65C206.965 80.5167 207.115 80.4 207.249 80.3C207.382 80.3 207.449 80.3667 207.449 80.5C207.449 80.8667 206.965 81.3333 205.999 81.9C205.032 82.4667 204.349 82.75 203.949 82.75ZM211.282 83.15C210.449 83.15 209.716 83 209.082 82.7C208.482 82.4 208.182 82.1167 208.182 81.85C212.016 81.05 213.932 80.0833 213.932 78.95C213.932 78.7167 213.482 78.2 212.582 77.4C210.849 75.8667 209.982 74.15 209.982 72.25C209.982 70.8833 210.832 69.5333 212.532 68.2C214.299 66.8 215.899 66.1 217.332 66.1C217.566 66.1 218.032 66.45 218.732 67.15C219.432 67.85 219.782 68.3 219.782 68.5C219.782 68.6667 219.699 68.75 219.532 68.75C219.166 68.6833 218.866 68.6333 218.632 68.6C218.399 68.5333 218.232 68.5 218.132 68.5C216.632 68.5 215.082 69.05 213.482 70.15C211.916 71.25 211.132 72.3667 211.132 73.5C211.132 73.7 211.916 74.7167 213.482 76.55C215.049 78.3167 215.832 79.5333 215.832 80.2C215.832 80.8667 215.366 81.5167 214.432 82.15C213.932 82.4833 213.399 82.7333 212.832 82.9C212.299 83.0667 211.782 83.15 211.282 83.15ZM230.567 82.4C229.9 82.4 229.284 82.1 228.717 81.5C228.184 80.8667 227.917 80.0667 227.917 79.1C227.917 78.1333 228.5 76.6333 229.667 74.6C230.834 72.6 232.267 70.8 233.967 69.2C235.634 67.6333 237.067 66.85 238.267 66.85H238.767C240 66.85 241.05 67.1 241.917 67.6C242.784 68.0667 243.217 68.7 243.217 69.5C243.217 69.8667 243.067 70.05 242.767 70.05C242.667 70.05 242.617 70 242.617 69.9C242.084 68.6667 241.267 68.05 240.167 68.05C238.267 68.05 236.1 69.6167 233.667 72.75C231.234 75.8167 230.017 78.1833 230.017 79.85C230.017 80.4833 230.184 80.8 230.517 80.8C232.017 80.8 235.167 77.4167 239.967 70.65C239.934 70.6833 239.95 70.6833 240.017 70.65C240.117 70.5833 240.2 70.55 240.267 70.55C240.434 70.55 240.784 70.7167 241.317 71.05C241.85 71.35 242.117 71.6167 242.117 71.85C242.117 71.85 242.05 71.9667 241.917 72.2C241.784 72.4 241.617 72.7167 241.417 73.15C240.884 74.2833 240.467 75.4 240.167 76.5C239.9 77.5667 239.767 78.5 239.767 79.3C239.767 81.0667 240.2 81.95 241.067 81.95L241.567 81.85L241.667 81.9C241.667 82.2 241.25 82.35 240.417 82.35C239.617 82.35 238.95 81.9833 238.417 81.25C237.917 80.4833 237.667 79.4667 237.667 78.2C237.667 76.9667 237.884 75.6 238.317 74.1C238.284 74.2 238.167 74.3833 237.967 74.65C237.767 74.9167 237.45 75.3833 237.017 76.05C234.284 80.2833 232.134 82.4 230.567 82.4ZM245.105 82.1C244.772 82.1 244.455 82.0167 244.155 81.85C243.855 81.65 243.688 81.45 243.655 81.25C243.655 80.6833 244.205 78.6833 245.305 75.25C246.405 71.7833 246.955 69.1833 246.955 67.45C246.955 66.95 246.838 66.6667 246.605 66.6C246.372 66.5 246.138 66.4667 245.905 66.5C245.672 66.5 245.555 66.4167 245.555 66.25C245.555 65.95 245.805 65.8 246.305 65.8C248.538 65.8 249.655 66.7167 249.655 68.55C249.655 69.2167 248.855 71.9333 247.255 76.7C247.988 75.5333 248.705 74.4667 249.405 73.5C250.138 72.5 250.838 71.5833 251.505 70.75C252.872 69.0833 253.788 68.25 254.255 68.25C254.255 68.25 254.255 68.2667 254.255 68.3C254.288 68.3 254.305 68.3167 254.305 68.35C254.305 68.3833 254.272 68.4667 254.205 68.6C254.172 68.7 254.072 68.85 253.905 69.05C250.305 73.3833 247.805 77.1167 246.405 80.25L245.955 81.55C245.822 81.9167 245.538 82.1 245.105 82.1ZM255.455 82.65C254.488 82.65 253.722 82.2 253.155 81.3C252.622 80.4667 252.355 79.2167 252.355 77.55C252.355 75.95 252.788 73.8 253.655 71.1C254.522 68.4 255.355 67.05 256.155 67.05H256.405C257.505 67.05 258.088 67.2667 258.155 67.7C258.088 67.6333 258.005 67.7333 257.905 68C257.438 68.8333 256.988 69.7667 256.555 70.8C256.155 71.8333 255.772 72.95 255.405 74.15C254.672 76.4833 254.305 78.05 254.305 78.85C254.305 80.8833 254.672 81.9 255.405 81.9C255.605 81.9 255.888 81.75 256.255 81.45C256.655 81.15 256.838 80.9833 256.805 80.95C256.905 80.95 256.955 81.0833 256.955 81.35C256.955 82.2167 256.455 82.65 255.455 82.65ZM269.539 83.85C268.039 83.85 267.289 82.65 267.289 80.25C267.289 78.8167 267.823 76.2667 268.889 72.6C268.189 73.9667 267.506 75.2 266.839 76.3C266.206 77.3667 265.523 78.3833 264.789 79.35C263.289 81.3167 262.006 82.3 260.939 82.3C260.273 82.3 259.589 81.8833 258.889 81.05C258.223 80.2167 257.889 79.4667 257.889 78.8C257.889 76.7 259.006 74.1833 261.239 71.25C263.506 68.25 265.523 66.75 267.289 66.75C267.789 66.75 268.306 66.9 268.839 67.2C269.439 67.4667 269.739 67.7833 269.739 68.15C269.739 68.4167 269.589 68.55 269.289 68.55L268.289 68C267.156 68 265.406 69.6833 263.039 73.05C260.706 76.3833 259.539 78.7333 259.539 80.1C259.539 80.6 259.656 80.85 259.889 80.85C260.223 80.85 260.823 80.4833 261.689 79.75C262.556 79.0167 263.723 77.8 265.189 76.1C266.689 74.3667 268.206 72.4 269.739 70.2C270.139 69.3 270.573 68.2667 271.039 67.1C271.539 65.9 272.139 64.4667 272.839 62.8C272.873 62.7333 272.989 62.4333 273.189 61.9C273.423 61.3667 273.673 60.7667 273.939 60.1C274.239 59.4333 274.489 58.85 274.689 58.35C274.889 57.85 274.989 57.5833 274.989 57.55C274.989 57.0167 274.656 56.75 273.989 56.75L272.289 57.1C272.056 57.1 271.939 57 271.939 56.8C271.939 56.2667 272.689 56 274.189 56C276.489 56 277.639 56.7833 277.639 58.35C277.639 58.85 276.606 61.2167 274.539 65.45C273.439 67.6167 272.639 69.2333 272.139 70.3C271.673 71.3333 271.423 71.8833 271.389 71.95C269.623 75.85 268.739 78.95 268.739 81.25C268.739 82.6167 269.073 83.3 269.739 83.3L271.239 82.75L271.389 82.8C271.389 83.0333 271.139 83.2667 270.639 83.5C270.173 83.7333 269.806 83.85 269.539 83.85ZM284.252 82.35C283.685 82.35 283.219 82.1167 282.852 81.65C282.519 81.1833 282.352 80.6333 282.352 80C282.352 77.9 284.435 74.3167 288.602 69.25C288.869 68.9167 289.085 68.7 289.252 68.6C289.452 68.4667 289.619 68.4 289.752 68.4C289.952 68.4 290.052 68.5 290.052 68.7L289.952 68.85C289.619 69.35 289.169 70.1 288.602 71.1C288.035 72.1 287.419 73.3 286.752 74.7C286.152 76 285.669 77.1167 285.302 78.05C284.969 78.9833 284.802 79.6167 284.802 79.95C284.802 80.5833 284.952 80.9 285.252 80.9C285.752 80.9 287.202 79.3667 289.602 76.3C290.969 74.6333 291.985 73.3 292.652 72.3C293.319 71.3 293.769 70.55 294.002 70.05C294.102 69.95 294.602 69.9 295.502 69.9C296.369 69.9 296.835 70.0333 296.902 70.3C296.802 70.3 296.752 71.8 296.752 74.8C296.752 79.0333 297.269 81.15 298.302 81.15C299.169 81.15 300.085 80.1167 301.052 78.05C301.985 75.9833 302.452 74.0167 302.452 72.15C302.452 69.75 301.735 68.3333 300.302 67.9C300.435 67.5667 301.019 67.4 302.052 67.4C304.119 67.4 305.152 68.9167 305.152 71.95C305.152 74.3833 304.452 76.6333 303.052 78.7C301.652 80.7667 300.019 81.8 298.152 81.8C296.852 81.8 295.852 81.0333 295.152 79.5C294.452 77.9333 294.102 75.8833 294.102 73.35C294.102 72.4167 294.169 71.7 294.302 71.2C292.869 73.5 291.619 75.4 290.552 76.9C289.519 78.4 288.685 79.5167 288.052 80.25C286.819 81.65 285.552 82.35 284.252 82.35ZM306.658 83.85C306.458 83.85 306.275 83.7667 306.108 83.6C304.342 81.7333 303.458 80.7167 303.458 80.55C303.458 80.35 303.558 80.25 303.758 80.25H303.858C304.758 79.6833 305.508 79.1833 306.108 78.75C306.408 77.6167 306.808 76.3167 307.308 74.85C307.842 73.3833 308.442 71.8833 309.108 70.35L311.958 63.8C312.592 62.3333 313.075 61.0833 313.408 60.05C313.775 58.9833 313.958 58.1167 313.958 57.45C313.958 56.7167 313.642 56.35 313.008 56.35L311.258 56.7C311.092 56.7 311.008 56.6 311.008 56.4C311.008 55.9 311.642 55.65 312.908 55.65C314.175 55.65 315.125 55.8833 315.758 56.35C316.392 56.7833 316.708 57.3833 316.708 58.15C316.708 58.85 315.958 60.7333 314.458 63.8L311.508 69.85L308.558 76.65C309.925 75.45 311.275 74.05 312.608 72.45C313.975 70.8167 314.992 69.5167 315.658 68.55C316.358 67.55 316.758 67.05 316.858 67.05H317.108C318.308 67.05 318.908 67.2667 318.908 67.7C318.908 67.6667 318.892 67.6667 318.858 67.7C318.858 67.7 318.875 67.7167 318.908 67.75V67.7C318.875 67.6333 318.792 67.7333 318.658 68C318.192 68.8333 317.742 69.7667 317.308 70.8C316.908 71.8333 316.525 72.95 316.158 74.15C315.425 76.4833 315.058 78.05 315.058 78.85C315.058 80.8833 315.408 81.9 316.108 81.9C316.342 81.9 316.825 81.5833 317.558 80.95C317.658 80.95 317.708 81.0833 317.708 81.35C317.708 82.2167 317.225 82.65 316.258 82.65C315.325 82.65 314.558 82.1667 313.958 81.2C313.358 80.2333 313.058 79.1167 313.058 77.85C313.058 76.4833 313.375 74.95 314.008 73.25C312.942 74.35 311.875 75.3667 310.808 76.3C309.775 77.2 308.775 78.0333 307.808 78.8C307.142 80.7 306.808 81.9833 306.808 82.65V82.9C307.108 83.1 307.258 83.2667 307.258 83.4C307.258 83.7 307.058 83.85 306.658 83.85ZM305.708 82.3C305.708 82.2333 305.692 82.1333 305.658 82C305.658 81.9 305.658 81.7833 305.658 81.65C305.658 81.3167 305.708 80.8333 305.808 80.2C305.442 80.4 305.142 80.55 304.908 80.65C304.675 80.75 304.525 80.8167 304.458 80.85C304.625 81.0833 304.808 81.3333 305.008 81.6C305.208 81.8333 305.442 82.0667 305.708 82.3ZM322.828 82.55C319.995 82.55 318.578 81.2333 318.578 78.6C318.578 76.5667 319.578 74.1 321.578 71.2C323.645 68.3 325.611 66.85 327.478 66.85C328.278 66.85 328.978 67.1167 329.578 67.65C330.211 68.15 330.528 68.7667 330.528 69.5C330.528 70.7333 329.745 71.9833 328.178 73.25C326.645 74.4833 325.128 75.1 323.628 75.1C323.328 75.1 323.178 75.0333 323.178 74.9L323.328 74.65C327.161 73.45 329.078 71.4833 329.078 68.75C329.078 68.35 328.945 68.15 328.678 68.15C328.311 68.15 327.645 68.5333 326.678 69.3C325.845 69.9667 325.061 70.7333 324.328 71.6C323.628 72.4667 322.995 73.3667 322.428 74.3C321.228 76.3333 320.628 78.0333 320.628 79.4C320.628 80.7333 321.145 81.4 322.178 81.4C323.378 81.4 324.695 80.7833 326.128 79.55C326.595 79.1167 327.095 78.6333 327.628 78.1C328.161 77.5333 328.745 76.9167 329.378 76.25C330.611 74.9167 331.261 74.25 331.328 74.25C331.528 74.25 331.628 74.3333 331.628 74.5C331.628 74.6333 331.595 74.7667 331.528 74.9C328.028 80 325.128 82.55 322.828 82.55ZM334.498 82.55C331.664 82.55 330.248 81.2333 330.248 78.6C330.248 76.5667 331.248 74.1 333.248 71.2C335.314 68.3 337.281 66.85 339.148 66.85C339.948 66.85 340.648 67.1167 341.248 67.65C341.881 68.15 342.198 68.7667 342.198 69.5C342.198 70.7333 341.414 71.9833 339.848 73.25C338.314 74.4833 336.798 75.1 335.298 75.1C334.998 75.1 334.848 75.0333 334.848 74.9L334.998 74.65C338.831 73.45 340.748 71.4833 340.748 68.75C340.748 68.35 340.614 68.15 340.348 68.15C339.981 68.15 339.314 68.5333 338.348 69.3C337.514 69.9667 336.731 70.7333 335.998 71.6C335.298 72.4667 334.664 73.3667 334.098 74.3C332.898 76.3333 332.298 78.0333 332.298 79.4C332.298 80.7333 332.814 81.4 333.848 81.4C335.048 81.4 336.364 80.7833 337.798 79.55C338.264 79.1167 338.764 78.6333 339.298 78.1C339.831 77.5333 340.414 76.9167 341.048 76.25C342.281 74.9167 342.931 74.25 342.998 74.25C343.198 74.25 343.298 74.3333 343.298 74.5C343.298 74.6333 343.264 74.7667 343.198 74.9C339.698 80 336.798 82.55 334.498 82.55ZM345.568 82.45C343.968 82.45 343.168 81.1167 343.168 78.45C343.168 76.75 343.701 73.95 344.768 70.05C345.834 66.1167 347.184 62.5 348.818 59.2C350.484 55.8333 351.951 54.15 353.218 54.15C353.951 54.15 354.684 54.4 355.418 54.9C356.151 55.3667 356.518 55.8833 356.518 56.45C356.518 58.85 352.984 64.1833 345.918 72.45C345.651 73.6833 345.434 74.8333 345.268 75.9C345.134 76.9667 345.068 77.9667 345.068 78.9C345.068 80.7333 345.468 81.65 346.268 81.65L347.068 81.4C347.234 81.4 347.318 81.4833 347.318 81.65C347.318 82.1833 346.734 82.45 345.568 82.45ZM346.268 71.15C352.301 63.2833 355.318 58.3333 355.318 56.3C355.318 55.9 355.201 55.7 354.968 55.7C353.968 55.7 352.518 57.4833 350.618 61.05C348.718 64.6167 347.268 67.9833 346.268 71.15Z" fill="#181A20"/>
</svg>
